<?xml version="1.0" encoding="utf-8"?>
<!-- Generator: Adobe Illustrator 16.0.0, SVG Export Plug-In . SVG Version: 6.00 Build 0)  -->
<!DOCTYPE svg PUBLIC "-//W3C//DTD SVG 1.1//EN" "http://www.w3.org/Graphics/SVG/1.1/DTD/svg11.dtd">
<svg version="1.1"
	 id="svg2986" xmlns:dc="http://purl.org/dc/elements/1.1/" xmlns:cc="http://creativecommons.org/ns#" xmlns:rdf="http://www.w3.org/1999/02/22-rdf-syntax-ns#" xmlns:svg="http://www.w3.org/2000/svg" xmlns:sodipodi="http://sodipodi.sourceforge.net/DTD/sodipodi-0.dtd" xmlns:inkscape="http://www.inkscape.org/namespaces/inkscape" inkscape:version="0.91 r13725" sodipodi:docname="django.svg" inkscape:export-filename="/Users/christoph/Desktop/django.png" inkscape:export-ydpi="260.19711" inkscape:export-xdpi="260.19711"
	 xmlns="http://www.w3.org/2000/svg" xmlns:xlink="http://www.w3.org/1999/xlink" x="0px" y="0px" width="219.057px"
	 height="76.531px" viewBox="-0.527 9.003 219.057 76.531" enable-background="new -0.527 9.003 219.057 76.531"
	 xml:space="preserve">
<sodipodi:namedview  units="mm" id="base" pagecolor="#ffffff" bordercolor="#666666" borderopacity="1.0" inkscape:zoom="1" inkscape:cx="335.74892" inkscape:cy="149.78234" showgrid="false" showborder="true" fit-margin-top="0" fit-margin-left="0.7" inkscape:pageshadow="2" inkscape:showpageshadow="true" inkscape:snap-grids="true" inkscape:pageopacity="0.0" inkscape:document-units="px" inkscape:current-layer="layer1" inkscape:snap-from-guide="true" fit-margin-right="0" fit-margin-bottom="0" inkscape:window-width="1436" inkscape:window-height="855" inkscape:window-x="4" inkscape:window-y="0" inkscape:window-maximized="1">
	</sodipodi:namedview>
<g id="g3430" transform="matrix(0.50183733,0,0,0.50183733,18.15094,921.15658)">
	<g id="g3408">
		<g id="g3410">
			<path id="path3412" inkscape:connector-curvature="0" fill="#FFFFFF" d="M14.244-1817.629h23.869v110.496
				c-12.246,2.323-21.234,3.254-30.999,3.254c-29.143,0-44.333-13.174-44.333-38.443c0-24.336,16.119-40.145,41.078-40.145
				c3.874,0,6.821,0.307,10.388,1.242v-36.401h-0.002V-1817.629z M14.244-1762.009c-2.792-0.926-5.114-1.24-8.06-1.24
				c-12.09,0-19.069,7.441-19.069,20.462c0,12.711,6.669,19.689,18.911,19.689c2.637,0,4.808-0.158,8.218-0.623V-1762.009z"/>
			<path id="path3414" inkscape:connector-curvature="0" fill="#FFFFFF" d="M76.093-1780.762v55.34
				c0,19.067-1.395,28.211-5.581,36.117c-3.874,7.597-8.99,12.4-19.534,17.669l-22.167-10.539
				c10.539-4.958,15.655-9.3,18.911-15.969c3.409-6.821,4.497-14.725,4.497-35.495v-47.124H76.093L76.093-1780.762z M52.222-1817.5
				h23.871v24.492H52.222V-1817.5z"/>
			<path id="path3416" inkscape:connector-curvature="0" fill="#FFFFFF" d="M90.513-1775.339
				c10.541-4.956,20.618-7.128,31.624-7.128c12.246,0,20.304,3.256,23.871,9.609c2.014,3.565,2.635,8.216,2.635,18.136v48.517
				c-10.697,1.551-24.187,2.637-34.103,2.637c-19.995,0-28.987-6.978-28.987-22.48c0-16.741,11.937-24.49,41.233-26.971v-5.271
				c0-4.338-2.17-5.889-8.216-5.889c-8.835,0-18.755,2.479-28.057,7.286V-1775.339L90.513-1775.339z M127.869-1737.359
				c-15.813,1.551-20.927,4.028-20.927,10.232c0,4.649,2.946,6.819,9.457,6.819c3.567,0,6.821-0.307,11.47-1.084V-1737.359z"/>
			<path id="path3418" inkscape:connector-curvature="0" fill="#FFFFFF" d="M160.27-1777.043
				c14.102-3.721,25.732-5.423,37.513-5.423c12.246,0,21.083,2.791,26.352,8.214c4.958,5.114,6.507,10.695,6.507,22.635v46.811
				h-23.869v-45.88c0-9.146-3.1-12.557-11.625-12.557c-3.254,0-6.2,0.309-11.006,1.705v56.735H160.27V-1777.043L160.27-1777.043z"/>
			<path id="path3420" inkscape:connector-curvature="0" fill="#FFFFFF" d="M239.923-1691.784
				c8.372,4.338,16.743,6.354,25.578,6.354c15.653,0,22.32-6.354,22.32-21.546c0-0.156,0-0.307,0-0.465
				c-4.651,2.323-9.302,3.256-15.502,3.256c-20.927,0-34.259-13.795-34.259-35.652c0-27.129,19.687-42.473,54.563-42.473
				c10.232,0,19.687,1.084,31.159,3.409l-8.175,17.218c-6.356-1.24-0.508-0.166-5.313-0.631v2.481l0.311,10.07l0.152,13.022
				c0.156,3.254,0.156,6.509,0.311,9.767c0,2.942,0,4.34,0,6.509c0,20.462-1.705,30.071-6.819,37.976
				c-7.441,11.629-20.308,17.362-38.598,17.362c-9.3,0-17.36-1.393-25.732-4.651v-22.007H239.923z M287.358-1763.093
				c-0.311,0-0.619,0-0.774,0h-1.705c-4.651-0.156-10.076,1.084-13.797,3.409c-5.733,3.256-8.681,9.146-8.681,17.518
				c0,11.938,5.891,18.755,16.432,18.755c3.256,0,5.891-0.621,8.99-1.551v-1.705v-6.509c0-2.791-0.154-5.893-0.154-9.146
				l-0.16-11.004l-0.156-7.905v-1.862H287.358L287.358-1763.093z"/>
			<path id="path3422" inkscape:connector-curvature="0" fill="#FFFFFF" d="M360.844-1782.776c23.873,0,38.447,15.037,38.447,39.373
				c0,24.957-15.19,40.613-39.377,40.613c-23.871,0-38.596-15.035-38.596-39.215
				C321.317-1767.123,336.507-1782.776,360.844-1782.776z M360.377-1722.013c9.148,0,14.573-7.597,14.573-20.771
				c0-13.021-5.274-20.771-14.416-20.771c-9.457,0-14.885,7.597-14.885,20.771C345.649-1729.608,351.077-1722.013,360.377-1722.013z
				"/>
		</g>
	</g>
</g>
</svg>
