<?xml version="1.0" encoding="UTF-8" standalone="no"?>
<!-- Created with Inkscape (http://www.inkscape.org/) -->

<svg
   xmlns:dc="http://purl.org/dc/elements/1.1/"
   xmlns:cc="http://creativecommons.org/ns#"
   xmlns:rdf="http://www.w3.org/1999/02/22-rdf-syntax-ns#"
   xmlns:svg="http://www.w3.org/2000/svg"
   xmlns="http://www.w3.org/2000/svg"
   xmlns:xlink="http://www.w3.org/1999/xlink"
   xmlns:sodipodi="http://sodipodi.sourceforge.net/DTD/sodipodi-0.dtd"
   xmlns:inkscape="http://www.inkscape.org/namespaces/inkscape"
   width="1154.1327"
   height="103.76748"
   id="svg2986"
   version="1.1"
   inkscape:version="0.48.4 r9939"
   sodipodi:docname="New document 1">
  <defs
     id="defs2988">
    <radialGradient
       gradientTransform="matrix(2.382716e-8,-0.296405,1.43676,4.683673e-7,-128.544,150.5202)"
       gradientUnits="userSpaceOnUse"
       xlink:href="#linearGradient2795"
       id="radialGradient1480"
       fy="132.28575"
       fx="61.518883"
       r="29.036913"
       cy="132.28575"
       cx="61.518883" />
    <linearGradient
       gradientTransform="matrix(0.562541,0,0,0.567972,-9.399749,-5.305317)"
       gradientUnits="userSpaceOnUse"
       xlink:href="#linearGradient4689"
       id="linearGradient1478"
       y2="114.39767"
       x2="135.66525"
       y1="20.603781"
       x1="26.648937" />
    <linearGradient
       gradientTransform="matrix(0.562541,0,0,0.567972,-9.399749,-5.305317)"
       gradientUnits="userSpaceOnUse"
       xlink:href="#linearGradient4671"
       id="linearGradient1475"
       y2="137.27299"
       x2="112.03144"
       y1="192.35176"
       x1="150.96111" />
    <radialGradient
       gradientTransform="matrix(1,0,0,0.177966,0,108.7434)"
       gradientUnits="userSpaceOnUse"
       xlink:href="#linearGradient2795"
       id="radialGradient2801"
       fy="132.28575"
       fx="61.518883"
       r="29.036913"
       cy="132.28575"
       cx="61.518883" />
    <linearGradient
       gradientTransform="matrix(0.562541,0,0,0.567972,-11.5974,-7.60954)"
       gradientUnits="userSpaceOnUse"
       xlink:href="#linearGradient4689"
       id="linearGradient2258"
       y2="76.313133"
       x2="26.670298"
       y1="76.176224"
       x1="172.94208" />
    <linearGradient
       gradientTransform="matrix(0.562541,0,0,0.567972,-11.5974,-7.60954)"
       gradientUnits="userSpaceOnUse"
       xlink:href="#linearGradient4671"
       id="linearGradient2255"
       y2="144.75717"
       x2="-65.308502"
       y1="144.75717"
       x1="224.23996" />
    <linearGradient
       gradientTransform="translate(100.2702,99.61116)"
       gradientUnits="userSpaceOnUse"
       xlink:href="#linearGradient4671"
       id="linearGradient2250"
       y2="144.75717"
       x2="-65.308502"
       y1="144.75717"
       x1="224.23996" />
    <linearGradient
       gradientTransform="translate(100.2702,99.61116)"
       gradientUnits="userSpaceOnUse"
       xlink:href="#linearGradient4689"
       id="linearGradient2248"
       y2="76.313133"
       x2="26.670298"
       y1="77.475983"
       x1="172.94208" />
    <linearGradient
       gradientTransform="translate(100.2702,99.61116)"
       gradientUnits="userSpaceOnUse"
       xlink:href="#linearGradient4671"
       id="linearGradient2589"
       y2="144.75717"
       x2="-65.308502"
       y1="144.75717"
       x1="224.23996" />
    <linearGradient
       gradientTransform="translate(100.2702,99.61116)"
       gradientUnits="userSpaceOnUse"
       xlink:href="#linearGradient4689"
       id="linearGradient2587"
       y2="76.313133"
       x2="26.670298"
       y1="77.475983"
       x1="172.94208" />
    <linearGradient
       gradientTransform="translate(100.2702,99.61116)"
       gradientUnits="userSpaceOnUse"
       xlink:href="#linearGradient4689"
       id="linearGradient2990"
       y2="76.313133"
       x2="26.670298"
       y1="77.475983"
       x1="172.94208" />
    <linearGradient
       gradientTransform="translate(100.2702,99.61116)"
       gradientUnits="userSpaceOnUse"
       xlink:href="#linearGradient4671"
       id="linearGradient2987"
       y2="144.75717"
       x2="-65.308502"
       y1="144.75717"
       x1="224.23996" />
    <linearGradient
       id="linearGradient4689">
      <stop
         id="stop4691"
         offset="0"
         style="stop-color:#5a9fd4;stop-opacity:1" />
      <stop
         id="stop4693"
         offset="1"
         style="stop-color:#306998;stop-opacity:1" />
    </linearGradient>
    <linearGradient
       id="linearGradient4671">
      <stop
         id="stop4673"
         offset="0"
         style="stop-color:#ffd43b;stop-opacity:1" />
      <stop
         id="stop4675"
         offset="1"
         style="stop-color:#ffe873;stop-opacity:1" />
    </linearGradient>
    <linearGradient
       id="linearGradient3236">
      <stop
         id="stop3244"
         offset="0"
         style="stop-color:#f4f4f4;stop-opacity:1" />
      <stop
         id="stop3240"
         offset="1"
         style="stop-color:#ffffff;stop-opacity:1" />
    </linearGradient>
    <linearGradient
       id="linearGradient3676">
      <stop
         id="stop3678"
         offset="0"
         style="stop-color:#b2b2b2;stop-opacity:0.5" />
      <stop
         id="stop3680"
         offset="1"
         style="stop-color:#b3b3b3;stop-opacity:0" />
    </linearGradient>
    <linearGradient
       id="linearGradient2787">
      <stop
         id="stop2789"
         offset="0"
         style="stop-color:#7f7f7f;stop-opacity:0.5" />
      <stop
         id="stop2791"
         offset="1"
         style="stop-color:#7f7f7f;stop-opacity:0" />
    </linearGradient>
    <linearGradient
       id="linearGradient2795">
      <stop
         id="stop2797"
         offset="0"
         style="stop-color:#b8b8b8;stop-opacity:0.49803922" />
      <stop
         id="stop2799"
         offset="1"
         style="stop-color:#7f7f7f;stop-opacity:0" />
    </linearGradient>
  </defs>
  <sodipodi:namedview
     id="base"
     pagecolor="#ffffff"
     bordercolor="#666666"
     borderopacity="1.0"
     inkscape:pageopacity="0.0"
     inkscape:pageshadow="2"
     inkscape:zoom="0.35355339"
     inkscape:cx="29.386787"
     inkscape:cy="149.78234"
     inkscape:document-units="px"
     inkscape:current-layer="layer1"
     showgrid="false"
     showborder="true"
     inkscape:showpageshadow="true"
     inkscape:snap-grids="true"
     inkscape:snap-from-guide="true"
     fit-margin-top="0"
     fit-margin-left="0"
     fit-margin-right="0"
     fit-margin-bottom="0"
     inkscape:window-width="1375"
     inkscape:window-height="876"
     inkscape:window-x="65"
     inkscape:window-y="24"
     inkscape:window-maximized="1" />
  <metadata
     id="metadata2991">
    <rdf:RDF>
      <cc:Work
         rdf:about="">
        <dc:format>image/svg+xml</dc:format>
        <dc:type
           rdf:resource="http://purl.org/dc/dcmitype/StillImage" />
        <dc:title></dc:title>
      </cc:Work>
    </rdf:RDF>
  </metadata>
  <g
     inkscape:label="Layer 1"
     inkscape:groupmode="layer"
     id="layer1"
     transform="translate(-18.263983,-912.15199)">
    <g
       id="g3083"
       transform="matrix(1.8938085,0,0,1.8938085,670.43434,912.23721)">
      <path
         id="path3085"
         d="M 65.327,23.208 H 58.738 V 34.596 H 54.345 V 5.638 h 10.981 c 5.653,0 9.271,3.742 9.271,8.785 0,5.043 -3.618,8.785 -9.27,8.785 z M 65.082,9.583 h -6.345 v 9.639 h 6.345 c 3.05,0 5.124,-1.749 5.124,-4.799 0,-3.051 -2.074,-4.84 -5.124,-4.84 z"
         inkscape:connector-curvature="0"
         style="fill:#0095d3" />
      <path
         id="path3087"
         d="m 83.969,34.596 c -3.904,0 -5.652,-2.644 -5.652,-5.693 V 5.638 h 4.148 v 23.021 c 0,1.587 0.567,2.399 2.235,2.399 h 1.83 v 3.538 h -2.561 z"
         inkscape:connector-curvature="0"
         style="fill:#0095d3" />
      <path
         id="path3089"
         d="m 104.762,32.399 c -1.344,1.384 -3.377,2.44 -6.184,2.44 -2.805,0 -4.799,-1.058 -6.141,-2.44 -1.951,-2.032 -2.439,-4.637 -2.439,-8.134 0,-3.457 0.488,-6.061 2.439,-8.094 1.342,-1.383 3.336,-2.44 6.141,-2.44 2.807,0 4.84,1.059 6.184,2.44 1.951,2.033 2.439,4.637 2.439,8.094 0.002,3.498 -0.488,6.101 -2.439,8.134 z m -3.133,-13.786 c -0.773,-0.773 -1.83,-1.181 -3.051,-1.181 -1.219,0 -2.236,0.406 -3.01,1.181 -1.26,1.261 -1.422,3.416 -1.422,5.652 0,2.236 0.162,4.393 1.422,5.653 0.773,0.771 1.791,1.22 3.01,1.22 1.221,0 2.277,-0.447 3.051,-1.22 1.262,-1.262 1.424,-3.417 1.424,-5.653 0,-2.236 -0.162,-4.392 -1.424,-5.652 z"
         inkscape:connector-curvature="0"
         style="fill:#0095d3" />
      <path
         id="path3091"
         d="M 123.643,34.596 V 22.029 c 0,-3.214 -1.83,-4.597 -4.147,-4.597 -2.317,0 -4.271,1.423 -4.271,4.597 v 12.566 h -4.147 v -20.62 h 4.065 v 2.074 c 1.425,-1.546 3.416,-2.318 5.49,-2.318 2.115,0 3.865,0.691 5.084,1.871 1.586,1.545 2.074,3.497 2.074,5.815 v 13.178 l -4.148,10e-4 0,0 z"
         inkscape:connector-curvature="0"
         style="fill:#0095d3" />
      <path
         id="path3093"
         d="m 135.772,25.486 c 0,3.537 1.871,5.774 5.246,5.774 2.317,0 3.539,-0.649 5.004,-2.115 l 2.643,2.481 c -2.115,2.114 -4.107,3.213 -7.727,3.213 -5.166,0 -9.273,-2.725 -9.273,-10.574 0,-6.671 3.457,-10.534 8.744,-10.534 5.531,0 8.744,4.067 8.744,9.925 v 1.83 h -13.381 z m 8.703,-5.695 c -0.65,-1.545 -2.113,-2.604 -4.066,-2.604 -1.951,0 -3.457,1.059 -4.107,2.604 -0.406,0.936 -0.488,1.546 -0.529,2.807 h 9.273 c -0.043,-1.261 -0.163,-1.872 -0.571,-2.807 z"
         inkscape:connector-curvature="0"
         style="fill:#0095d3" />
      <circle
         id="circle3095"
         r="4.402"
         cy="11.516"
         cx="17.815001"
         sodipodi:cx="17.815001"
         sodipodi:cy="11.516"
         sodipodi:rx="4.402"
         sodipodi:ry="4.402"
         style="fill:#0095d3"
         d="m 22.217,11.516 c 0,2.431157 -1.970842,4.402 -4.401999,4.402 -2.431158,0 -4.402,-1.970843 -4.402,-4.402 0,-2.4311576 1.970842,-4.4020002 4.402,-4.4020002 2.431157,0 4.401999,1.9708426 4.401999,4.4020002 z" />
      <path
         id="path3097"
         d="m 31.167,20.311 c 0,2.433 -1.969,4.401 -4.403,4.401 -2.427,0 -4.401,-1.97 -4.401,-4.401 0,-2.433 1.975,-4.401 4.401,-4.401 2.436,-10e-4 4.403,1.969 4.403,4.401 z"
         inkscape:connector-curvature="0"
         style="fill:#0095d3" />
      <circle
         id="circle3099"
         r="4.402"
         cy="29.131001"
         cx="17.801001"
         sodipodi:cx="17.801001"
         sodipodi:cy="29.131001"
         sodipodi:rx="4.402"
         sodipodi:ry="4.402"
         style="fill:#0095d3"
         d="m 22.203001,29.131001 c 0,2.431157 -1.970843,4.401999 -4.402,4.401999 -2.431158,0 -4.402,-1.970842 -4.402,-4.401999 0,-2.431158 1.970842,-4.402 4.402,-4.402 2.431157,0 4.402,1.970842 4.402,4.402 z" />
      <g
         id="g3101">
        <path
           id="path3103"
           d="M 20.441,-0.045 C 9.207,-0.044 0.1,9.063 0.099,20.298 0.1,31.532 9.207,40.639 20.441,40.641 31.676,40.639 40.782,31.534 40.784,20.298 40.783,9.063 31.677,-0.044 20.441,-0.045 z m 11.45,31.792 C 28.954,34.681 24.919,36.489 20.441,36.49 15.963,36.489 11.928,34.679 8.991,31.747 6.058,28.81 4.25,24.775 4.249,20.298 4.25,15.82 6.058,11.785 8.992,8.848 c 2.937,-2.934 6.972,-4.742 11.45,-4.743 4.478,10e-4 8.513,1.81 11.45,4.743 2.934,2.938 4.742,6.973 4.743,11.45 -0.002,4.477 -1.81,8.512 -4.744,11.449 z"
           inkscape:connector-curvature="0"
           style="fill:#0095d3" />
      </g>
      <g
         id="g3105">
        <path
           id="path3107"
           d="m 153.985,9.95 c -1.195,0 -2.164,0.971 -2.164,2.168 0.002,1.197 0.969,2.168 2.164,2.168 1.199,0 2.172,-0.971 2.172,-2.168 0,-1.197 -0.973,-2.168 -2.172,-2.168 z m 0,4.018 c -1.021,-0.002 -1.846,-0.827 -1.846,-1.85 0.002,-1.021 0.825,-1.849 1.846,-1.851 1.023,0.002 1.852,0.828 1.854,1.851 -0.003,1.023 -0.831,1.848 -1.854,1.85 z"
           inkscape:connector-curvature="0"
           style="fill:#0095d3" />
      </g>
      <g
         id="g3109">
        <path
           id="path3111"
           d="m 154.507,13.409 -0.54,-1.08 h -0.486 v 1.08 h -0.389 v -2.564 h 0.994 c 0.484,0 0.796,0.313 0.796,0.75 0,0.367 -0.224,0.602 -0.513,0.68 l 0.592,1.136 -0.454,-0.002 0,0 z m -0.451,-2.214 h -0.575 v 0.803 h 0.575 c 0.261,0 0.437,-0.147 0.437,-0.399 0,-0.252 -0.176,-0.404 -0.437,-0.404 z"
           inkscape:connector-curvature="0"
           style="fill:#0095d3" />
      </g>
    </g>
    <g
       transform="matrix(0.25853762,0,0,0.25853762,988.09272,874.07363)"
       id="g3057">
      <path
         style="fill:#a24689"
         inkscape:connector-curvature="0"
         id="path3059"
         d="m 166.205,250.621 c 10.126,0 19.689,2.016 28.683,6.046 8.992,4.031 16.898,9.458 23.721,16.279 6.821,6.822 12.248,14.782 16.279,23.876 4.031,9.1 6.046,18.813 6.046,29.147 0,10.34 -1.967,20.001 -5.891,28.993 -3.93,8.992 -9.254,16.899 -15.97,23.721 -6.72,6.821 -14.627,12.199 -23.721,16.124 -9.099,3.93 -18.915,5.892 -29.458,5.892 -10.339,0 -20.053,-1.86 -29.147,-5.581 -9.099,-3.722 -17.054,-8.939 -23.876,-15.659 -6.821,-6.716 -12.199,-14.622 -16.124,-23.722 -3.929,-9.094 -5.892,-19.017 -5.892,-29.768 0,-10.334 1.909,-20 5.736,-28.992 3.823,-8.992 9.147,-16.846 15.97,-23.565 6.821,-6.716 14.83,-12.094 24.031,-16.124 9.196,-4.031 19.07,-6.251 29.613,-6.667 z m -0.31,30.697 c -5.998,0 -11.734,1.139 -17.209,3.411 -5.479,2.277 -10.232,5.427 -14.264,9.458 -4.031,4.03 -7.238,8.735 -9.612,14.108 -2.379,5.378 -3.566,11.27 -3.566,17.674 0,5.998 1.188,11.735 3.566,17.21 2.374,5.479 5.581,10.286 9.612,14.419 4.031,4.137 8.784,7.393 14.264,9.767 5.475,2.379 11.211,3.566 17.209,3.566 5.993,0 11.73,-1.188 17.21,-3.566 5.475,-2.374 10.232,-5.63 14.264,-9.767 4.031,-4.133 7.233,-8.939 9.612,-14.419 2.374,-5.475 3.565,-11.212 3.565,-17.21 -0.62,-12.194 -4.961,-22.48 -13.022,-30.853 -8.063,-8.372 -18.504,-12.97 -31.318,-13.799 h -0.311 z" />
      <path
         style="fill:#8f8f8f"
         inkscape:connector-curvature="0"
         id="path3061"
         d="m 382.019,202.869 c 3.513,-0.204 6.821,1.191 9.923,4.186 3.101,2.999 4.65,6.255 4.65,9.768 V 325.66 c 0,10.131 -2.068,19.743 -6.201,28.837 -4.138,9.1 -9.719,17.055 -16.744,23.876 -7.03,6.822 -15.039,12.249 -24.031,16.279 -8.992,4.031 -18.45,6.047 -28.372,6.047 -10.131,0 -19.743,-1.962 -28.838,-5.892 -9.099,-3.925 -17.054,-9.303 -23.876,-16.124 -6.821,-6.821 -12.248,-14.777 -16.279,-23.876 -4.031,-9.094 -6.046,-18.809 -6.046,-29.147 0,-11.163 1.807,-20.979 5.426,-29.458 3.614,-8.474 9.041,-16.434 16.279,-23.876 v 0.311 c 7.646,-7.233 16.071,-12.714 25.271,-16.435 9.196,-3.721 18.653,-5.581 28.372,-5.581 5.785,0 12.66,0.93 20.62,2.791 7.956,1.86 15.863,5.479 23.722,10.853 v -45.892 c 0,-2.064 0.411,-4.031 1.24,-5.892 0.823,-1.86 1.909,-3.566 3.256,-5.116 1.342,-1.551 2.945,-2.738 4.806,-3.566 1.86,-0.823 3.722,-1.134 5.582,-0.93 h 1.24 z M 365.895,325.66 c 0,-5.581 -1.192,-11.057 -3.566,-16.435 -2.379,-5.373 -5.635,-10.179 -9.768,-14.418 -4.138,-4.235 -8.891,-7.598 -14.264,-10.078 -5.378,-2.48 -11.061,-3.721 -17.054,-3.721 -5.998,0 -11.734,1.191 -17.21,3.565 -5.479,2.379 -10.232,5.582 -14.264,9.613 -4.03,4.03 -7.238,8.788 -9.612,14.263 -2.379,5.48 -3.565,11.217 -3.565,17.21 0,6.201 1.187,11.991 3.565,17.364 2.374,5.378 5.582,10.078 9.612,14.108 4.031,4.031 8.784,7.238 14.264,9.612 5.476,2.379 11.212,3.566 17.21,3.566 5.993,0 11.676,-1.188 17.054,-3.566 5.373,-2.374 10.126,-5.581 14.264,-9.612 4.133,-4.03 7.389,-8.73 9.768,-14.108 2.373,-5.372 3.566,-11.162 3.566,-17.363 z" />
      <path
         style="fill:#8f8f8f"
         inkscape:connector-curvature="0"
         id="path3063"
         d="m 480.623,250.621 c 10.126,0 19.689,2.016 28.683,6.046 8.992,4.031 16.898,9.458 23.721,16.279 6.821,6.822 12.248,14.782 16.279,23.876 4.031,9.1 6.046,18.813 6.046,29.147 0,10.34 -1.967,20.001 -5.891,28.993 -3.93,8.992 -9.254,16.899 -15.97,23.721 -6.72,6.821 -14.627,12.199 -23.721,16.124 -9.099,3.93 -18.915,5.892 -29.458,5.892 -10.339,0 -20.053,-1.86 -29.147,-5.581 -9.099,-3.722 -17.054,-8.939 -23.876,-15.659 -6.821,-6.716 -12.199,-14.622 -16.124,-23.722 -3.929,-9.094 -5.892,-19.017 -5.892,-29.768 0,-10.334 1.909,-20 5.736,-28.992 3.823,-8.992 9.147,-16.846 15.97,-23.565 6.821,-6.716 14.83,-12.094 24.031,-16.124 9.196,-4.031 19.07,-6.251 29.613,-6.667 z m -0.31,30.697 c -5.998,0 -11.734,1.139 -17.209,3.411 -5.479,2.277 -10.232,5.427 -14.264,9.458 -4.031,4.03 -7.238,8.735 -9.612,14.108 -2.379,5.378 -3.566,11.27 -3.566,17.674 0,5.998 1.188,11.735 3.566,17.21 2.374,5.479 5.581,10.286 9.612,14.419 4.031,4.137 8.784,7.393 14.264,9.767 5.475,2.379 11.211,3.566 17.209,3.566 5.993,0 11.73,-1.188 17.21,-3.566 5.475,-2.374 10.232,-5.63 14.264,-9.767 4.031,-4.133 7.233,-8.939 9.612,-14.419 2.374,-5.475 3.565,-11.212 3.565,-17.21 -0.62,-12.194 -4.961,-22.48 -13.022,-30.853 -8.063,-8.372 -18.504,-12.97 -31.318,-13.799 h -0.311 z" />
      <path
         style="fill:#8f8f8f"
         inkscape:connector-curvature="0"
         id="path3065"
         d="m 638.142,250.621 c 10.126,0 19.689,2.016 28.683,6.046 8.992,4.031 16.898,9.458 23.721,16.279 6.821,6.822 12.248,14.782 16.279,23.876 4.031,9.1 6.046,18.813 6.046,29.147 0,10.34 -1.967,20.001 -5.891,28.993 -3.93,8.992 -9.254,16.899 -15.97,23.721 -6.72,6.821 -14.627,12.199 -23.721,16.124 -9.099,3.93 -18.915,5.892 -29.458,5.892 -10.339,0 -20.053,-1.86 -29.147,-5.581 -9.099,-3.722 -17.054,-8.939 -23.876,-15.659 -6.821,-6.716 -12.199,-14.622 -16.124,-23.722 -3.929,-9.094 -5.892,-19.017 -5.892,-29.768 0,-10.334 1.909,-20 5.736,-28.992 3.823,-8.992 9.147,-16.846 15.97,-23.565 6.821,-6.716 14.83,-12.094 24.031,-16.124 9.196,-4.031 19.07,-6.251 29.613,-6.667 z m -0.311,30.697 c -5.998,0 -11.734,1.139 -17.209,3.411 -5.479,2.277 -10.232,5.427 -14.264,9.458 -4.031,4.03 -7.238,8.735 -9.612,14.108 -2.379,5.378 -3.566,11.27 -3.566,17.674 0,5.998 1.188,11.735 3.566,17.21 2.374,5.479 5.581,10.286 9.612,14.419 4.031,4.137 8.784,7.393 14.264,9.767 5.475,2.379 11.211,3.566 17.209,3.566 5.993,0 11.73,-1.188 17.21,-3.566 5.475,-2.374 10.232,-5.63 14.264,-9.767 4.031,-4.133 7.233,-8.939 9.612,-14.419 2.374,-5.475 3.565,-11.212 3.565,-17.21 -0.62,-12.194 -4.961,-22.48 -13.023,-30.853 -8.062,-8.372 -18.503,-12.97 -31.317,-13.799 h -0.311 z" />
    </g>
    <g
       id="g2303"
       transform="matrix(0.72129355,0,0,0.72129355,14.230963,914.17008)">
      <path
         d="m 184.61344,61.929363 c 0,-14.56215 -4.15226,-22.03817 -12.45678,-22.44755 -3.30427,-0.15595 -6.53055,0.37039 -9.66912,1.58878 -2.505,0.89673 -4.19124,1.78372 -5.07823,2.68045 l 0,34.75812 c 5.31216,3.33351 10.02976,4.88329 14.14303,4.63962 8.70415,-0.57508 13.0611,-7.64172 13.0611,-21.21942 z m 10.24419,0.60432 c 0,7.39804 -1.73498,13.53871 -5.22444,18.422 -3.88909,5.5266 -9.27923,8.37275 -16.17042,8.52871 -5.1952,0.1657 -10.54635,-1.46207 -16.05346,-4.87355 l 0,31.590317 -8.90884,-3.17755 0,-70.120567 c 1.46206,-1.79346 3.34325,-3.3335 5.62407,-4.63961 5.30242,-3.08983 11.74524,-4.67861 19.32848,-4.75658 l 0.12671,0.12671 c 6.93018,-0.08773 12.27159,2.75843 16.02422,8.5287 3.4992,5.29267 5.25368,12.07665 5.25368,20.37142 z"
         style="fill:#646464;fill-opacity:1"
         id="path46"
         inkscape:connector-curvature="0" />
      <path
         d="m 249.30487,83.265743 c 0,9.92254 -0.9942,16.794237 -2.9826,20.615097 -1.99816,3.82086 -5.79952,6.8717 -11.41385,9.14277 -4.55189,1.79346 -9.47417,2.76817 -14.75709,2.93387 l -1.47181,-5.61432 c 5.37064,-0.73103 9.15252,-1.46207 11.34561,-2.1931 4.31796,-1.46206 7.28108,-3.70389 8.90884,-6.706 1.30611,-2.446517 1.94942,-7.115367 1.94942,-14.026057 l 0,-2.3198 c -6.09193,2.76817 -12.47628,4.14251 -19.15303,4.14251 -4.38619,0 -8.25579,-1.37434 -11.58929,-4.14251 -3.74289,-3.01186 -5.61433,-6.83272 -5.61433,-11.46258 l 0,-37.07793 8.90884,-3.05084 0,37.3216 c 0,3.98656 1.28662,7.0569 3.85985,9.21101 2.57323,2.1541 5.90674,3.18729 9.99077,3.10932 4.08403,-0.08773 8.46047,-1.66676 13.10983,-4.75658 l 0,-43.54025 8.90884,0 0,48.41379 z"
         style="fill:#646464;fill-opacity:1"
         id="path48"
         inkscape:connector-curvature="0" />
      <path
         d="m 284.08249,88.997033 c -1.06243,0.08772 -2.03714,0.12671 -2.93387,0.12671 -5.03925,0 -8.96733,-1.19889 -11.77449,-3.60642 -2.79742,-2.40753 -4.20099,-5.73129 -4.20099,-9.97127 l 0,-35.08953 -6.10168,0 0,-5.60457 6.10168,0 0,-14.88381 8.89909,-3.16781 0,18.05162 10.01026,0 0,5.60457 -10.01026,0 0,34.84585 c 0,3.34325 0.89673,5.71179 2.6902,7.09588 1.54004,1.14041 3.98656,1.79347 7.32006,1.95917 l 0,4.63961 z"
         style="fill:#646464;fill-opacity:1"
         id="path50"
         inkscape:connector-curvature="0" />
      <path
         d="m 338.02288,88.266003 -8.90884,0 0,-34.38773 c 0,-3.49921 -0.81876,-6.51106 -2.44651,-9.02581 -1.88119,-2.84615 -4.49342,-4.26923 -7.84641,-4.26923 -4.08404,0 -9.19152,2.15411 -15.32242,6.46233 l 0,41.22044 -8.90885,0 0,-82.1972101 8.90885,-2.80716 0,37.4385701 c 5.6923,-4.14251 11.91093,-6.21864 18.66566,-6.21864 4.7176,0 8.53846,1.58877 11.46258,4.75658 2.93388,3.1678 4.39594,7.11537 4.39594,11.83296 l 0,37.1949 0,0 z"
         style="fill:#646464;fill-opacity:1"
         id="path52"
         inkscape:connector-curvature="0" />
      <path
         d="m 385.37424,60.525783 c 0,-5.59483 -1.06242,-10.21495 -3.17755,-13.87011 -2.51474,-4.45442 -6.42332,-6.80347 -11.70625,-7.04715 -9.76658,0.56534 -14.64012,7.56375 -14.64012,20.97574 0,6.15042 1.01369,11.28713 3.06057,15.41015 2.61223,5.25368 6.53056,7.84641 11.755,7.75869 9.80557,-0.07798 14.70835,-7.81717 14.70835,-23.22732 z m 9.75685,0.05848 c 0,7.96338 -2.03714,14.5914 -6.10168,19.88407 -4.47391,5.92623 -10.65357,8.89909 -18.53897,8.89909 -7.81716,0 -13.90909,-2.97286 -18.30503,-8.89909 -3.98656,-5.29267 -5.97497,-11.92069 -5.97497,-19.88407 0,-7.48576 2.15411,-13.78238 6.46232,-18.90935 4.5519,-5.43888 10.53661,-8.16806 17.93464,-8.16806 7.39805,0 13.42174,2.72918 18.06137,8.16806 4.3082,5.12697 6.46232,11.42359 6.46232,18.90935 z"
         style="fill:#646464;fill-opacity:1"
         id="path54"
         inkscape:connector-curvature="0" />
      <path
         d="m 446.20583,88.266003 -8.90884,0 0,-36.33715 c 0,-3.98656 -1.19889,-7.09588 -3.59667,-9.33772 -2.39779,-2.23208 -5.59483,-3.31401 -9.58139,-3.22628 -4.23023,0.07798 -8.25579,1.46206 -12.07664,4.14251 l 0,44.75864 -8.90884,0 0,-45.86006 c 5.12697,-3.73313 9.84456,-6.16991 14.15276,-7.31032 4.06455,-1.06243 7.65148,-1.58877 10.74131,-1.58877 2.11512,0 4.10352,0.20469 5.97496,0.61406 3.49921,0.80901 6.34535,2.31006 8.53845,4.51291 2.44651,2.43677 3.6649,5.3609 3.6649,8.78212 l 0,40.85006 z"
         style="fill:#646464;fill-opacity:1"
         id="path56"
         inkscape:connector-curvature="0" />
      <path
         d="m 60.510156,6.3979729 c -4.583653,0.021298 -8.960939,0.4122177 -12.8125,1.09375 C 36.35144,9.4962267 34.291407,13.691825 34.291406,21.429223 l 0,10.21875 26.8125,0 0,3.40625 -26.8125,0 -10.0625,0 c -7.792459,0 -14.6157592,4.683717 -16.7500002,13.59375 -2.46182,10.212966 -2.5710151,16.586023 0,27.25 1.9059283,7.937852 6.4575432,13.593748 14.2500002,13.59375 l 9.21875,0 0,-12.25 c 0,-8.849902 7.657144,-16.656248 16.75,-16.65625 l 26.78125,0 c 7.454951,0 13.406253,-6.138164 13.40625,-13.625 l 0,-25.53125 c 0,-7.266339 -6.12998,-12.7247775 -13.40625,-13.9375001 -4.605987,-0.7667253 -9.385097,-1.1150483 -13.96875,-1.09375 z m -14.5,8.2187501 c 2.769547,0 5.03125,2.298646 5.03125,5.125 -2e-6,2.816336 -2.261703,5.09375 -5.03125,5.09375 -2.779476,-1e-6 -5.03125,-2.277415 -5.03125,-5.09375 -1e-6,-2.826353 2.251774,-5.125 5.03125,-5.125 z"
         style="fill:url(#linearGradient1478);fill-opacity:1"
         id="path1948"
         inkscape:connector-curvature="0" />
      <path
         d="m 91.228906,35.054223 0,11.90625 c 0,9.230755 -7.825895,16.999999 -16.75,17 l -26.78125,0 c -7.335833,0 -13.406249,6.278483 -13.40625,13.625 l 0,25.531247 c 0,7.26634 6.318588,11.54032 13.40625,13.625 8.487331,2.49561 16.626237,2.94663 26.78125,0 6.750155,-1.95439 13.406253,-5.88761 13.40625,-13.625 l 0,-10.218747 -26.78125,0 0,-3.40625 26.78125,0 13.406254,0 c 7.79246,0 10.69625,-5.435408 13.40624,-13.59375 2.79933,-8.398886 2.68022,-16.475776 0,-27.25 -1.92578,-7.757441 -5.60387,-13.59375 -13.40624,-13.59375 l -10.062504,0 z m -15.0625,64.65625 c 2.779478,3e-6 5.03125,2.277417 5.03125,5.093747 -2e-6,2.82635 -2.251775,5.125 -5.03125,5.125 -2.76955,0 -5.03125,-2.29865 -5.03125,-5.125 2e-6,-2.81633 2.261697,-5.093747 5.03125,-5.093747 z"
         style="fill:url(#linearGradient1475);fill-opacity:1"
         id="path1950"
         inkscape:connector-curvature="0" />
      <path
         d="m 463.5544,26.909383 1.56195,0 0,-9.79624 3.70013,0 0,-1.16766 -8.96221,0 0,1.16766 3.70013,0 0,9.79624 m 6.64702,0 1.33447,0 0,-8.94703 2.89641,8.945906 1.48569,0 3.01816,-8.915576 0,8.9167 1.45579,0 0,-10.9639 -1.92589,0 -3.29831,9.392857 -2.81297,-9.392857 -2.15335,0 0,10.9639"
         style="font-size:15.16445827px;font-style:normal;font-weight:normal;line-height:125%;fill:#646464;fill-opacity:1;stroke:none;font-family:Bitstream Vera Sans"
         id="text3004"
         inkscape:connector-curvature="0" />
      <path
         d="m 110.46717,132.28575 a 48.948285,8.6066817 0 1 1 -97.896571,0 48.948285,8.6066817 0 1 1 97.896571,0 z"
         transform="matrix(0.73406,0,0,0.809524,16.24958,27.00935)"
         style="opacity:0.44382019;fill:url(#radialGradient1480);fill-opacity:1;fill-rule:nonzero;stroke:none"
         id="path1894"
         inkscape:connector-curvature="0" />
    </g>
    <g
       style="overflow:visible"
       id="g3430"
       transform="matrix(0.50183733,0,0,0.50183733,406.15094,921.15658)">
      <g
         id="g3408">
        <g
           id="g3410">
          <path
             id="path3412"
             d="M 51.464,0 H 75.336 V 110.496 C 63.09,112.821 54.099,113.751 44.334,113.751 15.191,113.75 0,100.576 0,75.308 0,50.971 16.122,35.161 41.078,35.161 c 3.875,0 6.82,0.309 10.386,1.239 V 0 z m 0,55.62 c -2.79,-0.929 -5.115,-1.239 -8.06,-1.239 -12.091,0 -19.067,7.441 -19.067,20.461 0,12.712 6.666,19.687 18.912,19.687 2.634,0 4.805,-0.155 8.215,-0.619 V 55.62 z"
             inkscape:connector-curvature="0"
             style="fill:#092e20" />
          <path
             id="path3414"
             d="m 113.312,36.865 v 55.338 c 0,19.067 -1.395,28.212 -5.58,36.118 -3.876,7.597 -8.992,12.401 -19.532,17.672 L 66.033,135.452 c 10.541,-4.96 15.656,-9.299 18.911,-15.967 3.411,-6.82 4.497,-14.726 4.497,-35.497 V 36.865 h 23.871 z M 89.441,0.127 h 23.871 V 24.619 H 89.441 V 0.127 z"
             inkscape:connector-curvature="0"
             style="fill:#092e20" />
          <path
             id="path3416"
             d="m 127.731,42.29 c 10.542,-4.959 20.617,-7.129 31.623,-7.129 12.246,0 20.306,3.254 23.872,9.61 2.014,3.565 2.634,8.215 2.634,18.137 v 48.517 c -10.697,1.55 -24.182,2.636 -34.102,2.636 -19.996,0 -28.988,-6.978 -28.988,-22.478 0,-16.742 11.936,-24.492 41.234,-26.973 v -5.27 c 0,-4.34 -2.17,-5.889 -8.216,-5.889 -8.835,0 -18.756,2.48 -28.058,7.286 V 42.29 z m 37.358,37.978 c -15.812,1.55 -20.927,4.031 -20.927,10.231 0,4.65 2.946,6.82 9.456,6.82 3.566,0 6.82,-0.309 11.471,-1.084 V 80.268 z"
             inkscape:connector-curvature="0"
             style="fill:#092e20" />
          <path
             id="path3418"
             d="m 197.487,40.585 c 14.105,-3.72 25.731,-5.424 37.512,-5.424 12.246,0 21.082,2.789 26.354,8.215 4.96,5.114 6.509,10.694 6.509,22.632 V 112.82 H 243.99 V 66.938 c 0,-9.145 -3.1,-12.557 -11.625,-12.557 -3.255,0 -6.2,0.31 -11.007,1.705 V 112.82 H 197.487 V 40.585 z"
             inkscape:connector-curvature="0"
             style="fill:#092e20" />
          <path
             id="path3420"
             d="m 277.142,125.842 c 8.372,4.34 16.742,6.354 25.577,6.354 15.655,0 22.321,-6.354 22.321,-21.546 0,-0.155 0,-0.31 0,-0.465 -4.65,2.324 -9.301,3.255 -15.5,3.255 -20.927,0 -34.26,-13.796 -34.26,-35.652 0,-27.129 19.688,-42.473 54.564,-42.473 10.232,0 19.688,1.084 31.159,3.409 l -8.174,17.219 c -6.356,-1.24 -0.509,-0.166 -5.312,-0.631 v 2.481 l 0.309,10.074 0.154,13.022 c 0.155,3.254 0.155,6.51 0.311,9.765 0,2.945 0,4.341 0,6.511 0,20.462 -1.705,30.072 -6.82,37.977 -7.441,11.627 -20.307,17.362 -38.598,17.362 -9.301,0 -17.36,-1.395 -25.732,-4.651 v -22.011 z m 47.434,-71.306 c -0.31,0 -0.619,0 -0.774,0 h -1.706 c -4.649,-0.155 -10.074,1.084 -13.796,3.409 -5.734,3.256 -8.681,9.147 -8.681,17.517 0,11.937 5.892,18.757 16.432,18.757 3.255,0 5.891,-0.621 8.99,-1.55 v -1.706 -6.509 c 0,-2.79 -0.154,-5.892 -0.154,-9.146 l -0.154,-11.005 -0.156,-7.906 v -1.861 z"
             inkscape:connector-curvature="0"
             style="fill:#092e20" />
          <path
             id="path3422"
             d="m 398.062,34.85 c 23.871,0 38.443,15.037 38.443,39.373 0,24.958 -15.19,40.614 -39.373,40.614 -23.873,0 -38.599,-15.037 -38.599,-39.218 10e-4,-25.114 15.193,-40.769 39.529,-40.769 z m -0.467,60.764 c 9.147,0 14.573,-7.596 14.573,-20.772 0,-13.02 -5.271,-20.771 -14.415,-20.771 -9.457,0 -14.884,7.597 -14.884,20.771 10e-4,13.177 5.427,20.772 14.726,20.772 z"
             inkscape:connector-curvature="0"
             style="fill:#092e20" />
        </g>
      </g>
    </g>
  </g>
</svg>
