<?xml version="1.0" encoding="utf-8"?>
<!-- Generator: Adobe Illustrator 16.0.0, SVG Export Plug-In . SVG Version: 6.00 Build 0)  -->
<!DOCTYPE svg PUBLIC "-//W3C//DTD SVG 1.1//EN" "http://www.w3.org/Graphics/SVG/1.1/DTD/svg11.dtd">
<svg version="1.1"
	 id="svg2986" xmlns:dc="http://purl.org/dc/elements/1.1/" xmlns:cc="http://creativecommons.org/ns#" xmlns:rdf="http://www.w3.org/1999/02/22-rdf-syntax-ns#" xmlns:svg="http://www.w3.org/2000/svg" xmlns:sodipodi="http://sodipodi.sourceforge.net/DTD/sodipodi-0.dtd" xmlns:inkscape="http://www.inkscape.org/namespaces/inkscape" inkscape:version="0.91 r13725" sodipodi:docname="odoo.svg" inkscape:export-filename="/Users/christoph/Desktop/odoo.png" inkscape:export-ydpi="256.72784" inkscape:export-xdpi="256.72784"
	 xmlns="http://www.w3.org/2000/svg" xmlns:xlink="http://www.w3.org/1999/xlink" x="0px" y="0px" width="160.812px"
	 height="51.162px" viewBox="-0.398 14.355 160.812 51.162" enable-background="new -0.398 14.355 160.812 51.162"
	 xml:space="preserve">
<sodipodi:namedview  units="mm" id="base" pagecolor="#ffffff" bordercolor="#666666" borderopacity="1.0" inkscape:zoom="1" inkscape:cx="176.03967" inkscape:cy="-10.21766" showgrid="false" showborder="true" fit-margin-top="0" fit-margin-left="0.7" inkscape:pageshadow="2" inkscape:showpageshadow="true" inkscape:snap-grids="true" inkscape:pageopacity="0.0" inkscape:document-units="px" inkscape:current-layer="layer1" inkscape:snap-from-guide="true" fit-margin-right="0" fit-margin-bottom="0" inkscape:window-width="1436" inkscape:window-height="855" inkscape:window-x="4" inkscape:window-y="0" inkscape:window-maximized="1">
	</sodipodi:namedview>
<g id="layer1" transform="translate(-18.263983,-912.15193)" inkscape:label="Layer 1" inkscape:groupmode="layer">
	<g id="g3057" transform="matrix(0.25853762,0,0,0.25853762,-5.9074525,874.07363)">
		<path id="path3059" inkscape:connector-curvature="0" fill="#FFFFFF" d="M167.301,250.622c10.127,0,19.691,2.013,28.681,6.044
			c8.994,4.03,16.899,9.458,23.721,16.28c6.826,6.822,12.25,14.78,16.28,23.876c4.03,9.099,6.047,18.814,6.047,29.145
			c0,10.342-1.968,20.004-5.893,28.994c-3.928,8.994-9.254,16.896-15.97,23.721c-6.72,6.822-14.625,12.201-23.721,16.125
			c-9.099,3.928-18.913,5.889-29.459,5.889c-10.338,0-20.053-1.862-29.145-5.579c-9.099-3.724-17.054-8.941-23.876-15.661
			c-6.822-6.716-12.201-14.625-16.125-23.721c-3.928-9.096-5.889-19.018-5.889-29.769c0-10.334,1.907-20,5.734-28.99
			c3.823-8.994,9.149-16.847,15.97-23.566c6.822-6.716,14.829-12.091,24.031-16.121
			C146.885,253.255,156.759,251.034,167.301,250.622z M166.991,281.316c-5.998,0-11.732,1.141-17.209,3.411
			c-5.477,2.278-10.233,5.428-14.263,9.458c-4.03,4.03-7.237,8.737-9.613,14.108c-2.38,5.379-3.566,11.271-3.566,17.674
			c0,5.998,1.19,11.736,3.566,17.213c2.376,5.477,5.583,10.285,9.613,14.418c4.03,4.14,8.782,7.396,14.263,9.768
			c5.477,2.38,11.211,3.566,17.209,3.566c5.995,0,11.728-1.186,17.209-3.566c5.473-2.372,10.233-5.628,14.267-9.768
			c4.026-4.132,7.23-8.941,9.609-14.418c2.376-5.477,3.566-11.215,3.566-17.213c-0.62-12.193-4.96-22.478-13.02-30.853
			c-8.064-8.37-18.505-12.967-31.317-13.798H166.991L166.991,281.316z"/>
		<path id="path3061" inkscape:connector-curvature="0" fill="#FFFFFF" d="M383.114,202.87c3.513-0.204,6.822,1.19,9.923,4.185
			c3.101,2.999,4.65,6.255,4.65,9.768v108.838c0,10.131-2.066,19.74-6.198,28.839c-4.14,9.096-9.719,17.047-16.745,23.868
			c-7.029,6.825-15.037,12.253-24.031,16.28c-8.994,4.034-18.452,6.047-28.371,6.047c-10.134,0-19.747-1.96-28.839-5.889
			c-9.099-3.928-17.054-9.303-23.876-16.125c-6.822-6.825-12.25-14.78-16.28-23.872c-4.03-9.096-6.044-18.811-6.044-29.149
			c0-11.166,1.805-20.979,5.424-29.459c3.615-8.476,9.043-16.435,16.28-23.876v0.31c7.645-7.233,16.072-12.714,25.27-16.435
			c9.198-3.721,18.652-5.579,28.371-5.579c5.787,0,12.661,0.929,20.62,2.791c7.959,1.855,15.865,5.477,23.725,10.852v-45.897
			c0-2.059,0.408-4.03,1.239-5.893c0.823-1.858,1.907-3.566,3.256-5.114c1.341-1.549,2.946-2.739,4.805-3.566
			c1.862-0.823,3.724-1.133,5.587-0.929h1.235V202.87z M366.993,325.661c0-5.583-1.194-11.06-3.57-16.435
			c-2.38-5.375-5.636-10.18-9.768-14.418c-4.136-4.238-8.892-7.6-14.263-10.082c-5.379-2.482-11.063-3.721-17.054-3.721
			c-5.998,0-11.732,1.19-17.209,3.566c-5.477,2.38-10.233,5.583-14.263,9.613c-4.03,4.03-7.237,8.786-9.613,14.263
			c-2.38,5.481-3.566,11.218-3.566,17.209c0,6.202,1.19,11.989,3.566,17.364c2.376,5.379,5.583,10.078,9.613,14.104
			c4.03,4.03,8.782,7.241,14.263,9.617c5.477,2.376,11.211,3.566,17.209,3.566c5.995,0,11.675-1.19,17.054-3.566
			c5.371-2.376,10.127-5.587,14.267-9.617c4.129-4.026,7.385-8.725,9.768-14.104C365.796,337.65,366.993,331.859,366.993,325.661z"
			/>
		<path id="path3063" inkscape:connector-curvature="0" fill="#FFFFFF" d="M481.716,250.622c10.123,0,19.687,2.013,28.684,6.044
			c8.99,4.03,16.896,9.458,23.721,16.28c6.818,6.822,12.246,14.78,16.276,23.876c4.03,9.099,6.047,18.814,6.047,29.145
			c0,10.342-1.968,20.004-5.892,28.994c-3.928,8.994-9.254,16.896-15.97,23.721c-6.72,6.822-14.626,12.201-23.721,16.125
			c-9.096,3.928-18.917,5.889-29.455,5.889c-10.342,0-20.057-1.862-29.149-5.579c-9.099-3.724-17.054-8.941-23.876-15.661
			c-6.822-6.716-12.201-14.625-16.121-23.721c-3.932-9.096-5.889-19.018-5.889-29.769c0-10.334,1.904-20,5.734-28.99
			c3.823-8.994,9.148-16.847,15.97-23.566c6.822-6.716,14.83-12.091,24.031-16.121C461.3,253.255,471.17,251.034,481.716,250.622
			L481.716,250.622z M481.41,281.316c-5.998,0-11.736,1.141-17.209,3.411c-5.477,2.278-10.233,5.428-14.263,9.458
			c-4.034,4.03-7.237,8.737-9.613,14.108c-2.38,5.379-3.569,11.271-3.569,17.674c0,5.998,1.19,11.736,3.569,17.213
			c2.376,5.477,5.579,10.285,9.613,14.418c4.023,4.14,8.782,7.396,14.263,9.768c5.473,2.38,11.211,3.566,17.209,3.566
			c5.991,0,11.728-1.186,17.209-3.566c5.477-2.372,10.233-5.628,14.263-9.768c4.034-4.132,7.23-8.941,9.613-14.418
			c2.376-5.477,3.562-11.215,3.562-17.213c-0.623-12.193-4.956-22.478-13.016-30.853c-8.068-8.37-18.508-12.967-31.321-13.798
			H481.41L481.41,281.316z"/>
		<path id="path3065" inkscape:connector-curvature="0" fill="#FFFFFF" d="M639.234,250.622c10.123,0,19.687,2.013,28.681,6.044
			c8.994,4.03,16.899,9.458,23.721,16.28c6.818,6.822,12.246,14.78,16.276,23.876c4.03,9.099,6.047,18.814,6.047,29.145
			c0,10.342-1.968,20.004-5.892,28.994c-3.925,8.994-9.254,16.896-15.97,23.721c-6.72,6.822-14.622,12.201-23.717,16.125
			c-9.099,3.928-18.92,5.889-29.455,5.889c-10.342,0-20.057-1.862-29.149-5.579c-9.099-3.724-17.054-8.941-23.876-15.661
			c-6.825-6.716-12.197-14.625-16.121-23.721c-3.932-9.096-5.893-19.018-5.893-29.769c0-10.334,1.904-20,5.734-28.99
			c3.823-8.994,9.145-16.847,15.97-23.566c6.822-6.716,14.826-12.091,24.031-16.121
			C618.815,253.255,628.688,251.034,639.234,250.622z M638.925,281.316c-5.998,0-11.736,1.141-17.209,3.411
			c-5.481,2.278-10.236,5.428-14.267,9.458c-4.03,4.03-7.237,8.737-9.613,14.108c-2.38,5.379-3.566,11.271-3.566,17.674
			c0,5.998,1.19,11.736,3.566,17.213c2.376,5.477,5.583,10.285,9.613,14.418c4.03,4.14,8.782,7.396,14.267,9.768
			c5.473,2.38,11.211,3.566,17.209,3.566c5.991,0,11.728-1.186,17.209-3.566c5.473-2.372,10.229-5.628,14.263-9.768
			c4.03-4.132,7.234-8.941,9.609-14.418c2.376-5.477,3.566-11.215,3.566-17.213c-0.619-12.193-4.959-22.478-13.024-30.853
			c-8.061-8.37-18.501-12.967-31.313-13.798H638.925L638.925,281.316z"/>
	</g>
</g>
</svg>
