<?xml version="1.0" encoding="utf-8"?>
<!-- Generator: Adobe Illustrator 16.0.0, SVG Export Plug-In . SVG Version: 6.00 Build 0)  -->
<!DOCTYPE svg PUBLIC "-//W3C//DTD SVG 1.1//EN" "http://www.w3.org/Graphics/SVG/1.1/DTD/svg11.dtd">
<svg version="1.1"
	 id="svg2986" xmlns:dc="http://purl.org/dc/elements/1.1/" xmlns:cc="http://creativecommons.org/ns#" xmlns:rdf="http://www.w3.org/1999/02/22-rdf-syntax-ns#" xmlns:svg="http://www.w3.org/2000/svg" xmlns:sodipodi="http://sodipodi.sourceforge.net/DTD/sodipodi-0.dtd" xmlns:inkscape="http://www.inkscape.org/namespaces/inkscape" inkscape:export-xdpi="260.19711" inkscape:export-ydpi="260.19711" inkscape:export-filename="/Users/christoph/Desktop/plone.png" sodipodi:docname="plone.svg" inkscape:version="0.91 r13725"
	 xmlns="http://www.w3.org/2000/svg" xmlns:xlink="http://www.w3.org/1999/xlink" x="0px" y="0px" width="295.546px"
	 height="103.768px" viewBox="0 0 295.546 103.768" enable-background="new 0 0 295.546 103.768" xml:space="preserve">
<sodipodi:namedview  units="mm" fit-margin-left="0.7" fit-margin-top="0" showborder="true" showgrid="false" inkscape:cy="189.78234" inkscape:cx="215.74892" inkscape:zoom="1" borderopacity="1.0" bordercolor="#666666" pagecolor="#ffffff" id="base" inkscape:window-maximized="1" inkscape:window-y="0" inkscape:window-x="4" inkscape:window-height="855" inkscape:window-width="1436" fit-margin-bottom="0" fit-margin-right="0" inkscape:snap-from-guide="true" inkscape:current-layer="layer1" inkscape:document-units="px" inkscape:pageopacity="0.0" inkscape:snap-grids="true" inkscape:showpageshadow="true" inkscape:pageshadow="2">
	</sodipodi:namedview>
<g id="g3083" transform="matrix(1.8938085,0,0,1.8938085,18.43434,912.23721)">
	<path id="path3085" inkscape:connector-curvature="0" fill="#CCCCCC" d="M55.683-458.442h-6.589v11.388h-4.393v-28.958h10.981
		c5.653,0,9.271,3.742,9.271,8.785S61.335-458.442,55.683-458.442L55.683-458.442z M55.438-472.067h-6.345v9.639h6.345
		c3.05,0,5.124-1.749,5.124-4.799C60.562-470.278,58.488-472.067,55.438-472.067z"/>
	<path id="path3087" inkscape:connector-curvature="0" fill="#CCCCCC" d="M74.325-447.054c-3.904,0-5.652-2.644-5.652-5.693v-23.265
		h4.148v23.021c0,1.587,0.567,2.399,2.235,2.399h1.83v3.538H74.325L74.325-447.054z"/>
	<path id="path3089" inkscape:connector-curvature="0" fill="#CCCCCC" d="M95.118-449.251c-1.344,1.384-3.377,2.44-6.184,2.44
		c-2.805,0-4.799-1.058-6.142-2.44c-1.951-2.032-2.439-4.637-2.439-8.134c0-3.457,0.488-6.061,2.439-8.094
		c1.342-1.383,3.336-2.44,6.142-2.44c2.807,0,4.84,1.059,6.184,2.44c1.951,2.033,2.439,4.637,2.439,8.094
		C97.559-453.887,97.069-451.284,95.118-449.251z M91.985-463.036c-0.773-0.773-1.831-1.181-3.051-1.181
		c-1.219,0-2.236,0.406-3.01,1.181c-1.26,1.261-1.422,3.416-1.422,5.652s0.162,4.393,1.422,5.653c0.772,0.771,1.791,1.22,3.01,1.22
		c1.221,0,2.277-0.447,3.051-1.22c1.262-1.262,1.424-3.417,1.424-5.653S93.247-461.776,91.985-463.036z"/>
	<path id="path3091" inkscape:connector-curvature="0" fill="#CCCCCC" d="M113.999-447.054v-12.567c0-3.214-1.83-4.597-4.147-4.597
		s-4.271,1.423-4.271,4.597v12.566h-4.147v-20.62h4.064v2.074c1.425-1.546,3.416-2.318,5.49-2.318c2.115,0,3.865,0.691,5.084,1.871
		c1.586,1.545,2.074,3.497,2.074,5.815v13.178L113.999-447.054L113.999-447.054L113.999-447.054z"/>
	<path id="path3093" inkscape:connector-curvature="0" fill="#CCCCCC" d="M126.129-456.164c0,3.537,1.871,5.774,5.246,5.774
		c2.317,0,3.538-0.649,5.004-2.115l2.643,2.481c-2.115,2.114-4.107,3.213-7.727,3.213c-5.166,0-9.273-2.725-9.273-10.574
		c0-6.671,3.457-10.534,8.744-10.534c5.531,0,8.745,4.067,8.745,9.925v1.83H126.129L126.129-456.164z M134.832-461.858
		c-0.65-1.545-2.113-2.604-4.067-2.604c-1.951,0-3.457,1.059-4.107,2.604c-0.406,0.936-0.488,1.546-0.529,2.807h9.273
		C135.36-460.313,135.239-460.924,134.832-461.858z"/>
	<circle id="circle3095" fill="#CCCCCC" cx="8.171" cy="-470.134" r="4.402"/>
	<path id="path3097" inkscape:connector-curvature="0" fill="#CCCCCC" d="M21.523-461.339c0,2.433-1.969,4.401-4.403,4.401
		c-2.427,0-4.401-1.97-4.401-4.401c0-2.433,1.975-4.401,4.401-4.401C19.556-465.741,21.523-463.771,21.523-461.339z"/>
	<circle id="circle3099" fill="#CCCCCC" cx="8.157" cy="-452.518" r="4.402"/>
	<g id="g3101">
		<path id="path3103" inkscape:connector-curvature="0" fill="#CCCCCC" d="M10.797-481.695
			c-11.234,0.001-20.341,9.108-20.342,20.343c0.001,11.234,9.108,20.341,20.342,20.343c11.235-0.002,20.341-9.107,20.343-20.343
			C31.139-472.587,22.033-481.694,10.797-481.695z M22.247-449.903c-2.937,2.934-6.972,4.742-11.45,4.743
			c-4.478-0.001-8.513-1.811-11.45-4.743c-2.933-2.937-4.741-6.972-4.742-11.449c0.001-4.478,1.809-8.513,4.743-11.45
			c2.937-2.934,6.972-4.742,11.45-4.743c4.478,0.001,8.513,1.81,11.45,4.743c2.934,2.938,4.742,6.973,4.743,11.45
			C26.989-456.875,25.181-452.84,22.247-449.903z"/>
	</g>
	<g id="g3105">
		<path id="path3107" inkscape:connector-curvature="0" fill="#CCCCCC" d="M144.342-471.7c-1.195,0-2.164,0.971-2.164,2.168
			c0.002,1.197,0.968,2.168,2.164,2.168c1.198,0,2.172-0.971,2.172-2.168S145.54-471.7,144.342-471.7z M144.342-467.682
			c-1.021-0.002-1.846-0.827-1.846-1.85c0.002-1.021,0.825-1.849,1.846-1.851c1.023,0.002,1.852,0.828,1.854,1.851
			C146.193-468.509,145.365-467.684,144.342-467.682z"/>
	</g>
	<g id="g3109">
		<path id="path3111" inkscape:connector-curvature="0" fill="#CCCCCC" d="M144.864-468.241l-0.54-1.08h-0.486v1.08h-0.389v-2.564
			h0.994c0.484,0,0.796,0.313,0.796,0.75c0,0.367-0.224,0.602-0.514,0.68l0.592,1.136L144.864-468.241L144.864-468.241z
			 M144.412-470.455h-0.575v0.803h0.575c0.261,0,0.437-0.147,0.437-0.399C144.849-470.303,144.673-470.455,144.412-470.455z"/>
	</g>
</g>
</svg>
