<?xml version="1.0" encoding="utf-8"?>
<!-- Generator: Adobe Illustrator 16.0.0, SVG Export Plug-In . SVG Version: 6.00 Build 0)  -->
<!DOCTYPE svg PUBLIC "-//W3C//DTD SVG 1.1//EN" "http://www.w3.org/Graphics/SVG/1.1/DTD/svg11.dtd">
<svg version="1.1"
	 id="svg2986" xmlns:dc="http://purl.org/dc/elements/1.1/" xmlns:cc="http://creativecommons.org/ns#" xmlns:rdf="http://www.w3.org/1999/02/22-rdf-syntax-ns#" xmlns:svg="http://www.w3.org/2000/svg" xmlns:sodipodi="http://sodipodi.sourceforge.net/DTD/sodipodi-0.dtd" xmlns:inkscape="http://www.inkscape.org/namespaces/inkscape" inkscape:version="0.91 r13725" sodipodi:docname="python.svg" inkscape:export-filename="/Users/christoph/Desktop/python.png" inkscape:export-ydpi="260.19711" inkscape:export-xdpi="260.19711"
	 xmlns="http://www.w3.org/2000/svg" xmlns:xlink="http://www.w3.org/1999/xlink" x="0px" y="0px" width="342.469px"
	 height="99.398px" viewBox="0.266 4.371 342.469 99.398" enable-background="new 0.266 4.371 342.469 99.398" xml:space="preserve"
	>
<sodipodi:namedview  id="base" pagecolor="#ffffff" bordercolor="#666666" borderopacity="1.0" inkscape:zoom="1" inkscape:cx="100.24892" inkscape:cy="149.78234" showgrid="false" showborder="true" fit-margin-top="0" fit-margin-left="0" inkscape:pageshadow="2" inkscape:showpageshadow="true" inkscape:snap-grids="true" inkscape:pageopacity="0.0" inkscape:document-units="px" inkscape:current-layer="layer1" inkscape:snap-from-guide="true" fit-margin-right="0" fit-margin-bottom="0" inkscape:window-width="1436" inkscape:window-height="855" inkscape:window-x="4" inkscape:window-y="0" inkscape:window-maximized="1">
	</sodipodi:namedview>
<g id="g2303" transform="matrix(0.72129355,0,0,0.72129355,14.230963,914.17008)">
	<path id="path46" inkscape:connector-curvature="0" fill="#646464" d="M159.661-1202.674c0-14.562-4.152-22.039-12.457-22.449
		c-3.305-0.156-6.53,0.371-9.671,1.589c-2.505,0.898-4.189,1.784-5.076,2.681v34.759c5.31,3.332,10.03,4.884,14.143,4.64
		C155.303-1182.031,159.661-1189.097,159.661-1202.674z M169.904-1202.07c0,7.398-1.734,13.538-5.225,18.421
		c-3.888,5.528-9.278,8.373-16.17,8.531c-5.195,0.164-10.547-1.462-16.053-4.874v31.588l-8.909-3.175v-70.121
		c1.461-1.792,3.343-3.333,5.624-4.64c5.302-3.09,11.744-4.678,19.327-4.756l0.126,0.127c6.932-0.088,12.273,2.759,16.025,8.528
		C168.15-1217.15,169.904-1210.365,169.904-1202.07L169.904-1202.07z"/>
	<path id="path48" inkscape:connector-curvature="0" fill="#646464" d="M224.35-1181.339c0,9.924-0.994,16.795-2.983,20.616
		c-1.998,3.821-5.797,6.871-11.412,9.144c-4.552,1.793-9.475,2.766-14.758,2.931l-1.473-5.613c5.371-0.73,9.152-1.461,11.347-2.192
		c4.318-1.462,7.28-3.704,8.909-6.707c1.307-2.445,1.95-7.113,1.95-14.025v-2.319c-6.091,2.767-12.476,4.143-19.152,4.143
		c-4.387,0-8.256-1.376-11.588-4.143c-3.745-3.012-5.616-6.833-5.616-11.462v-37.079l8.91-3.05v37.322
		c0,3.986,1.285,7.057,3.86,9.211c2.571,2.154,5.907,3.187,9.989,3.11c4.086-0.088,8.462-1.668,13.11-4.759v-43.539h8.907V-1181.339
		L224.35-1181.339z"/>
	<path id="path50" inkscape:connector-curvature="0" fill="#646464" d="M259.127-1175.606c-1.063,0.087-2.038,0.126-2.934,0.126
		c-5.039,0-8.967-1.198-11.775-3.607c-2.797-2.407-4.2-5.731-4.2-9.971v-35.089h-6.102v-5.604h6.102v-14.883l8.898-3.168v18.052
		h10.011v5.604h-10.011v34.845c0,3.344,0.898,5.712,2.69,7.097c1.541,1.14,3.987,1.793,7.321,1.958V-1175.606L259.127-1175.606z"/>
	<path id="path52" inkscape:connector-curvature="0" fill="#646464" d="M313.068-1176.338h-8.909v-34.388
		c0-3.499-0.819-6.511-2.447-9.027c-1.882-2.846-4.494-4.269-7.847-4.269c-4.083,0-9.192,2.154-15.322,6.461v41.222h-8.909v-82.198
		l8.909-2.807v37.44c5.692-4.143,11.91-6.22,18.666-6.22c4.717,0,8.538,1.589,11.462,4.756c2.934,3.168,4.396,7.115,4.396,11.833
		V-1176.338L313.068-1176.338z"/>
	<path id="path54" inkscape:connector-curvature="0" fill="#646464" d="M360.42-1204.078c0-5.596-1.063-10.215-3.178-13.871
		c-2.517-4.454-6.424-6.803-11.707-7.047c-9.766,0.566-14.64,7.563-14.64,20.975c0,6.152,1.014,11.287,3.061,15.411
		c2.612,5.253,6.53,7.846,11.755,7.758C355.516-1180.929,360.42-1188.668,360.42-1204.078L360.42-1204.078z M370.176-1204.021
		c0,7.965-2.038,14.591-6.102,19.885c-4.473,5.926-10.653,8.899-18.539,8.899c-7.816,0-13.909-2.973-18.305-8.899
		c-3.986-5.294-5.975-11.92-5.975-19.885c0-7.486,2.154-13.783,6.462-18.909c4.552-5.439,10.536-8.168,17.934-8.168
		c7.399,0,13.421,2.729,18.061,8.168C368.022-1217.802,370.176-1211.505,370.176-1204.021z"/>
	<path id="path56" inkscape:connector-curvature="0" fill="#646464" d="M421.25-1176.338h-8.909v-36.337
		c0-3.987-1.198-7.096-3.596-9.338c-2.398-2.233-5.597-3.314-9.583-3.226c-4.231,0.079-8.255,1.462-12.077,4.143v44.759h-8.909
		v-45.861c5.126-3.733,9.844-6.17,14.152-7.31c4.063-1.063,7.652-1.59,10.742-1.59c2.115,0,4.104,0.205,5.975,0.615
		c3.498,0.808,6.346,2.31,8.538,4.513c2.446,2.436,3.665,5.361,3.665,8.781v40.851H421.25z"/>
	
		<linearGradient id="path1948_1_" gradientUnits="userSpaceOnUse" x1="386.6528" y1="3751.0884" x2="495.6688" y2="3844.8818" gradientTransform="matrix(0.2927 0 0 0.2955 -135.2353 -2363.4819)">
		<stop  offset="0" style="stop-color:#5A9FD4"/>
		<stop  offset="1" style="stop-color:#306998"/>
	</linearGradient>
	<path id="path1948" inkscape:connector-curvature="0" fill="url(#path1948_1_)" d="M35.559-1258.205
		c-4.584,0.022-8.961,0.411-12.813,1.093c-11.346,2.005-13.406,6.201-13.406,13.938v10.219h26.813v3.406H9.338H-0.725
		c-7.792,0-14.614,4.683-16.749,13.593c-2.461,10.214-2.571,16.587,0,27.249c1.906,7.938,6.458,13.593,14.251,13.593h9.219v-12.25
		c0-8.849,7.656-16.654,16.749-16.654h26.782c7.455,0,13.406-6.139,13.406-13.626v-25.531c0-7.266-6.13-12.725-13.406-13.938
		C44.919-1257.878,40.142-1258.227,35.559-1258.205z M21.058-1249.987c2.769,0,5.031,2.299,5.031,5.125
		c0,2.816-2.262,5.095-5.031,5.095c-2.781,0-5.031-2.279-5.031-5.095C16.026-1247.688,18.277-1249.987,21.058-1249.987z"/>
	
		<linearGradient id="path1950_1_" gradientUnits="userSpaceOnUse" x1="677.1829" y1="4040.5273" x2="638.2521" y2="3985.447" gradientTransform="matrix(0.2927 0 0 0.2955 -135.2353 -2363.4819)">
		<stop  offset="0" style="stop-color:#FFD43B"/>
		<stop  offset="1" style="stop-color:#FFE873"/>
	</linearGradient>
	<path id="path1950" inkscape:connector-curvature="0" fill="url(#path1950_1_)" d="M66.277-1229.549v11.905
		c0,9.231-7.827,17.001-16.752,17.001h-26.78c-7.335,0-13.406,6.278-13.406,13.623v25.532c0,7.266,6.319,11.542,13.406,13.627
		c8.488,2.495,16.626,2.946,26.782,0c6.751-1.955,13.406-5.888,13.406-13.627v-10.218H36.152v-3.406h26.782H76.34
		c7.792,0,10.696-5.435,13.405-13.593c2.8-8.398,2.679-16.476,0-27.249c-1.927-7.758-5.604-13.595-13.405-13.595H66.277
		L66.277-1229.549z M51.212-1164.894c2.781,0,5.031,2.277,5.031,5.095c0,2.827-2.252,5.126-5.031,5.126
		c-2.769,0-5.031-2.299-5.031-5.126C46.181-1162.616,48.444-1164.894,51.212-1164.894z"/>
	<path id="text3004" inkscape:connector-curvature="0" fill="#646464" d="M438.599-1237.695h1.562v-9.796h3.7v-1.168h-8.963v1.168
		h3.7V-1237.695 M445.247-1237.695h1.335v-8.947l2.896,8.947h1.485l3.018-8.917v8.918h1.455v-10.964h-1.925l-3.298,9.392
		l-2.813-9.392h-2.153V-1237.695"/>
	
		<radialGradient id="path1894_1_" cx="-8922.833" cy="1129.911" r="29.0272" gradientTransform="matrix(9.099717e-09 -0.1249 0.5487 1.972606e-07 -583.5129 -2244.4836)" gradientUnits="userSpaceOnUse">
		<stop  offset="0" style="stop-color:#B8B8B8;stop-opacity:0.498"/>
		<stop  offset="1" style="stop-color:#7F7F7F;stop-opacity:0"/>
	</radialGradient>
	<path id="path1894" inkscape:connector-curvature="0" opacity="0.4438" fill="url(#path1894_1_)" enable-background="new    " d="
		M72.387-1130.507c0.003,3.848-16.083,6.97-35.926,6.97c-19.844,0-35.935-3.119-35.938-6.967c0,0,0,0,0-0.001
		c-0.003-3.848,16.083-6.969,35.926-6.969C56.294-1137.474,72.383-1134.356,72.387-1130.507
		C72.387-1130.508,72.387-1130.508,72.387-1130.507z"/>
</g>
</svg>
