<?xml version="1.0" encoding="utf-8"?>
<!-- Generator: Adobe Illustrator 16.0.0, SVG Export Plug-In . SVG Version: 6.00 Build 0)  -->
<!DOCTYPE svg PUBLIC "-//W3C//DTD SVG 1.1//EN" "http://www.w3.org/Graphics/SVG/1.1/DTD/svg11.dtd">
<svg version="1.1"
	 id="svg2986" xmlns:dc="http://purl.org/dc/elements/1.1/" xmlns:cc="http://creativecommons.org/ns#" xmlns:rdf="http://www.w3.org/1999/02/22-rdf-syntax-ns#" xmlns:svg="http://www.w3.org/2000/svg" xmlns:sodipodi="http://sodipodi.sourceforge.net/DTD/sodipodi-0.dtd" xmlns:inkscape="http://www.inkscape.org/namespaces/inkscape" inkscape:version="0.91 r13725" sodipodi:docname="python.svg" inkscape:export-filename="/Users/christoph/Desktop/python.png" inkscape:export-ydpi="260.19711" inkscape:export-xdpi="260.19711"
	 xmlns="http://www.w3.org/2000/svg" xmlns:xlink="http://www.w3.org/1999/xlink" x="0px" y="0px" width="342.469px"
	 height="99.396px" viewBox="0.266 4.372 342.469 99.396" enable-background="new 0.266 4.372 342.469 99.396" xml:space="preserve"
	>
<sodipodi:namedview  id="base" pagecolor="#ffffff" bordercolor="#666666" borderopacity="1.0" inkscape:zoom="1" inkscape:cx="100.24892" inkscape:cy="149.78234" showgrid="false" showborder="true" fit-margin-top="0" fit-margin-left="0" inkscape:pageshadow="2" inkscape:showpageshadow="true" inkscape:snap-grids="true" inkscape:pageopacity="0.0" inkscape:document-units="px" inkscape:current-layer="layer1" inkscape:snap-from-guide="true" fit-margin-right="0" fit-margin-bottom="0" inkscape:window-width="1436" inkscape:window-height="855" inkscape:window-x="4" inkscape:window-y="0" inkscape:window-maximized="1">
	</sodipodi:namedview>
<path id="path46" inkscape:connector-curvature="0" fill="#FFFFFF" d="M129.394,46.689c0-10.504-2.995-15.896-8.984-16.191
	c-2.385-0.112-4.71,0.268-6.977,1.146c-1.807,0.647-3.021,1.287-3.661,1.935v25.07c3.83,2.403,7.234,3.522,10.201,3.348
	C126.25,61.578,129.394,56.482,129.394,46.689z M136.781,47.124c0,5.336-1.251,9.765-3.769,13.287
	c-2.805,3.986-6.692,6.039-11.663,6.152c-3.747,0.118-7.606-1.055-11.579-3.516v22.784l-6.426-2.29V32.965
	c1.054-1.293,2.411-2.404,4.057-3.347c3.824-2.229,8.472-3.374,13.94-3.432l0.091,0.092c5-0.062,8.854,1.99,11.56,6.151
	C135.517,36.247,136.781,41.141,136.781,47.124L136.781,47.124z"/>
<path id="path48" inkscape:connector-curvature="0" fill="#FFFFFF" d="M176.053,62.077c0,7.157-0.717,12.113-2.151,14.869
	c-1.44,2.757-4.182,4.956-8.23,6.597c-3.283,1.293-6.834,1.995-10.646,2.113l-1.062-4.049c3.874-0.525,6.602-1.054,8.185-1.581
	c3.114-1.055,5.251-2.672,6.427-4.838c0.941-1.764,1.405-5.131,1.405-10.116V63.4c-4.394,1.996-8.999,2.988-13.813,2.988
	c-3.164,0-5.955-0.992-8.358-2.988c-2.701-2.173-4.051-4.929-4.051-8.268V28.388l6.427-2.2v26.92c0,2.875,0.927,5.09,2.784,6.645
	c1.854,1.554,4.261,2.299,7.205,2.243c2.947-0.063,6.104-1.203,9.456-3.434V27.156h6.425v34.921H176.053z"/>
<path id="path50" inkscape:connector-curvature="0" fill="#FFFFFF" d="M201.138,66.212c-0.767,0.062-1.47,0.091-2.116,0.091
	c-3.635,0-6.468-0.864-8.493-2.602c-2.018-1.736-3.028-4.135-3.028-7.192V31.198h-4.401v-4.042h4.401V16.422l6.418-2.285v13.021
	h7.221V31.2h-7.221v25.134c0,2.412,0.646,4.12,1.939,5.119c1.111,0.821,2.876,1.293,5.28,1.411V66.212L201.138,66.212z"/>
<path id="path52" inkscape:connector-curvature="0" fill="#FFFFFF" d="M240.045,65.685h-6.426V40.881
	c0-2.523-0.592-4.696-1.766-6.511c-1.356-2.054-3.241-3.079-5.66-3.079c-2.944,0-6.63,1.554-11.052,4.66v29.732h-6.426V6.396
	l6.426-2.023v27.005c4.105-2.988,8.591-4.486,13.464-4.486c3.402,0,6.158,1.146,8.269,3.431c2.115,2.285,3.171,5.133,3.171,8.535
	V65.685L240.045,65.685z"/>
<path id="path54" inkscape:connector-curvature="0" fill="#FFFFFF" d="M274.199,45.676c0-4.036-0.768-7.368-2.292-10.005
	c-1.815-3.213-4.635-4.907-8.444-5.083c-7.044,0.408-10.561,5.455-10.561,15.129c0,4.438,0.731,8.142,2.208,11.116
	c1.885,3.789,4.71,5.659,8.479,5.596C270.662,62.373,274.199,56.791,274.199,45.676L274.199,45.676z M281.237,45.717
	c0,5.745-1.47,10.523-4.4,14.343c-3.228,4.274-7.685,6.419-13.372,6.419c-5.638,0-10.032-2.145-13.203-6.419
	c-2.875-3.817-4.31-8.598-4.31-14.343c0-5.399,1.554-9.941,4.66-13.639c3.283-3.924,7.601-5.893,12.937-5.893
	c5.337,0,9.681,1.969,13.027,5.893C279.683,35.777,281.237,40.319,281.237,45.717z"/>
<path id="path56" inkscape:connector-curvature="0" fill="#FFFFFF" d="M318.075,65.685h-6.426v-26.21
	c0-2.876-0.864-5.118-2.594-6.735c-1.729-1.609-4.037-2.391-6.912-2.326c-3.052,0.057-5.954,1.055-8.711,2.987v32.284h-6.426V32.606
	c3.697-2.691,7.101-4.45,10.208-5.271c2.931-0.768,5.52-1.146,7.748-1.146c1.524,0,2.96,0.147,4.31,0.443
	c2.523,0.583,4.577,1.666,6.158,3.255c1.765,1.757,2.644,3.867,2.644,6.334L318.075,65.685L318.075,65.685z"/>
<path id="path1948" inkscape:connector-curvature="0" fill="#FFFFFF" d="M39.879,6.634c-3.308,0.016-6.464,0.297-9.242,0.788
	c-8.184,1.446-9.67,4.473-9.67,10.054v7.371h19.34v2.457H20.966h-7.258c-5.62,0-10.541,3.378-12.081,9.805
	c-1.775,7.367-1.854,11.964,0,19.654c1.375,5.726,4.658,9.805,10.278,9.805h6.649v-8.836c0-6.383,5.522-12.013,12.081-12.013h19.317
	c5.377,0,9.67-4.428,9.67-9.828V17.476c0-5.241-4.422-9.179-9.67-10.054C46.631,6.87,43.185,6.618,39.879,6.634z M29.42,12.562
	c1.997,0,3.629,1.658,3.629,3.696c0,2.031-1.632,3.675-3.629,3.675c-2.006,0-3.629-1.644-3.629-3.675
	C25.79,14.22,27.414,12.562,29.42,12.562z"/>
<path id="path1950" inkscape:connector-curvature="0" fill="#FFFFFF" d="M62.036,27.304v8.587c0,6.658-5.646,12.263-12.083,12.263
	H30.637c-5.291,0-9.67,4.528-9.67,9.826v18.416c0,5.241,4.558,8.325,9.67,9.829c6.122,1.8,11.992,2.125,19.317,0
	c4.868-1.41,9.67-4.247,9.67-9.829v-7.37H40.307v-2.457h19.317h9.67c5.62,0,7.715-3.92,9.669-9.805
	c2.02-6.058,1.933-11.884,0-19.654c-1.391-5.596-4.042-9.806-9.669-9.806H62.036L62.036,27.304z M51.17,73.939
	c2.006,0,3.629,1.644,3.629,3.675c0,2.039-1.624,3.697-3.629,3.697c-1.997,0-3.629-1.658-3.629-3.697
	C47.541,75.582,49.173,73.939,51.17,73.939z"/>
<path id="text3004" inkscape:connector-curvature="0" fill="#FFFFFF" d="M330.59,21.428h1.127v-7.065h2.669V13.52h-6.465v0.843
	h2.669V21.428 M335.385,21.428h0.963v-6.453l2.089,6.453h1.071l2.177-6.432v6.433h1.05v-7.908h-1.389l-2.379,6.774l-2.029-6.774
	h-1.553V21.428"/>
<radialGradient id="path1894_1_" cx="-9617.5107" cy="-1491.2048" r="29.0138" gradientTransform="matrix(9.099717e-09 -0.1249 -0.5487 -1.972606e-07 -777.698 -1102.1357)" gradientUnits="userSpaceOnUse">
	<stop  offset="0" style="stop-color:#B8B8B8;stop-opacity:0.498"/>
	<stop  offset="1" style="stop-color:#7F7F7F;stop-opacity:0"/>
</radialGradient>
<path id="path1894" inkscape:connector-curvature="0" opacity="0.4438" fill="url(#path1894_1_)" enable-background="new    " d="
	M66.444,98.742c0.002,2.774-11.601,5.026-25.913,5.026s-25.92-2.25-25.922-5.024c0,0,0,0,0-0.001
	c-0.002-2.775,11.602-5.026,25.913-5.026C54.835,93.717,66.441,95.966,66.444,98.742C66.444,98.74,66.444,98.74,66.444,98.742z"/>
</svg>
