<?xml version="1.0" encoding="utf-8"?>
<!-- Generator: Adobe Illustrator 18.1.1, SVG Export Plug-In . SVG Version: 6.00 Build 0)  -->
<svg version="1.1" id="Layer_1" xmlns="http://www.w3.org/2000/svg" xmlns:xlink="http://www.w3.org/1999/xlink" x="0px" y="0px"
	 viewBox="0 0 400 400" enable-background="new 0 0 400 400" xml:space="preserve">
<g>
	<path fill-rule="evenodd" clip-rule="evenodd" fill="#0094D9" d="M84,260h43.2l-1.2,4H84V260L84,260z M88.6,96.4
		c1.6-16.9,16.7-25.3,33.5-25.3c16.8,0,31.9,8.4,33.5,25.3c0.8,8.8-1.2,29.6-5.5,37.5c-3.8,6.9-12.7,13.5-22.6,15.8
		c-4.8,0.7-6,0.7-10.8,0c-9.9-2.3-18.8-8.9-22.6-15.8C89.8,126,87.8,105.2,88.6,96.4L88.6,96.4z M75,268v-64.9
		c0-0.9,0.2-2.1,1.1-2.1h67.5c4.2-16,16.5-26.8,31.1-34c-8.4-5.8-19.4-8.7-28.4-10.7l-16.2,35.9l-1.9-22.3c0-0.1,1.4-7.5,1.5-9.3
		c0.1-0.7-0.6-1.3-1.4-1.3c-4.2,0.3-8.4,0.3-12.5,0c-0.7-0.1-1.4,0.6-1.4,1.3c0.2,1.8,1.5,9.2,1.5,9.3l-1.9,22.3l-16.2-35.8
		c-16.2,3.6-38.3,11-41.3,29.7l-15.4,54.1c-1.8,6.4-2.3,16,1.9,21.6c2.3,3.1,5.8,5.2,10,6.2H16v20h104.4c0.3-4,1-8.1,2-11.8l2.4-8.2
		H75z"/>
	<path fill-rule="evenodd" clip-rule="evenodd" d="M192,307h101v5H192V307L192,307z M197.8,88.4c2.1-22.5,22.2-33.7,44.7-33.7
		c22.5,0,42.6,11.2,44.7,33.7c1.1,11.7-1.5,39.5-7.4,50c-5.1,9.2-17,18-30.1,21c-6.4,0.9-8,0.9-14.3,0c-13.2-3-25-11.8-30.1-21
		C199.4,127.9,196.7,100.1,197.8,88.4L197.8,88.4z M179,318h127v-87.3c0-1.2-1-1.7-2.3-1.7H181.2c-1.3,0-2.2,0.5-2.2,1.7V318
		L179,318z M101,318v27h283v-27h-49.4c5.5-2,10.2-4.4,13.3-8.6c5.5-7.5,4.8-20.6,2.5-29.2l-20.9-74.1c-5.4-23.9-33.9-33-54.7-37.6
		l-21.6,47.8l-2.6-29.8c0-0.1,1.8-10,2-12.4c0.1-0.9-0.8-1.8-1.8-1.7c-5.6,0.4-11.2,0.4-16.7,0c-1-0.1-1.9,0.8-1.8,1.7
		c0.2,2.4,2.1,12.3,2,12.4l-2.6,29.8l-21.7-47.7c-21.7,4.8-51,14.6-55.1,39.6l-20.5,72.1c-2.3,8.5-3,21.6,2.5,29.1
		c3.1,4.2,7.8,6.6,13.3,8.6H101z"/>
</g>
</svg>
