<?xml version="1.0" encoding="utf-8"?>
<!-- Generator: Adobe Illustrator 18.1.1, SVG Export Plug-In . SVG Version: 6.00 Build 0)  -->
<svg version="1.1" id="Layer_1" xmlns="http://www.w3.org/2000/svg" xmlns:xlink="http://www.w3.org/1999/xlink" x="0px" y="0px"
	 viewBox="0 0 400 400" enable-background="new 0 0 400 400" xml:space="preserve">
<g>
	<path fill-rule="evenodd" clip-rule="evenodd" d="M144.7,105.7c-1.4-15-14.6-22.5-29.4-22.5s-28,7.5-29.4,22.5
		c-0.7,7.8,1,26.3,4.9,33.3c3.4,6.1,11.2,12,19.8,14c4.2,0.6,5.2,0.6,9.4,0c8.7-2,16.5-7.9,19.8-14
		C143.7,132,145.4,113.5,144.7,105.7L144.7,105.7z M62.7,243.4H39.2c-9.2,0-16.7-7.5-16.7-16.7V30.1c0-9.2,7.5-16.7,16.7-16.7h321.5
		c9.2,0,16.7,7.5,16.7,16.7v196.6c0,9.2-7.5,16.7-16.7,16.7H167.7v-24.1h185.7V37.5H46.6v181.8h15.1l-1.4-27
		c-0.7-12.9,9.7-22,24.3-27c4-1.4,8.2-2.4,12.3-3.1l11.8,25.9l1.6-19c0-0.1-1.2-6.4-1.3-7.9c-0.1-0.6,0.5-1.2,1.2-1.1
		c3.6,0.2,7.1,0.2,10.7,0c0.6,0,1.2,0.5,1.2,1.1c-0.1,1.5-1.3,7.9-1.3,7.9l1.6,19l13-28.7l85.8-5.9c7.3-0.5,11.1,17.6,4.3,19.7
		l-63.2,22.1c-6.4,2.3-6.5,4.4-7.1,12.8l-8,117.9l-3,44.2c-0.4,3.4-2.6,5.6-6,5.6H92.3c-3.4,0-5.6-2.2-6-5.6l-5.9-86.8l-6-1.8
		c-7.3-2.2-9.5-7.2-10.1-15.7L62.7,243.4z"/>
	<path fill-rule="evenodd" clip-rule="evenodd" fill="#0094D9" d="M364.2,381.9l0.8-20.4c1.4-35.5-85.8-38.8-101.6-10.3
		c-15.7-28.6-103-25.1-101.6,10.3l0.8,20.4c15.8,3,33.1,4.6,51.2,4.6c17.5,0,34.2-1.5,49.6-4.3c15.4,2.8,32.1,4.3,49.6,4.3
		C331.1,386.5,348.4,384.9,364.2,381.9L364.2,381.9z M186.1,280.6c1.3-14,13.8-21,27.8-21c14,0,26.5,7,27.8,21
		c0.7,7.3-1,24.6-4.6,31.1c-3.2,5.7-10.6,11.2-18.8,13.1c-4,0.6-5,0.6-8.9,0c-8.2-1.9-15.6-7.4-18.8-13.1
		C187,305.2,185.4,287.9,186.1,280.6L186.1,280.6z M285.2,280.6c1.3-14,13.8-21,27.8-21s26.5,7,27.8,21c0.7,7.3-1,24.6-4.6,31.1
		c-3.2,5.7-10.6,11.2-18.8,13.1c-4,0.6-5,0.6-8.9,0c-8.2-1.9-15.6-7.4-18.8-13.1C286.2,305.2,284.5,287.9,285.2,280.6z"/>
</g>
</svg>
