<?xml version="1.0" encoding="utf-8"?>
<!-- Generator: Adobe Illustrator 18.1.1, SVG Export Plug-In . SVG Version: 6.00 Build 0)  -->
<svg version="1.1" id="Layer_1" xmlns="http://www.w3.org/2000/svg" xmlns:xlink="http://www.w3.org/1999/xlink" x="0px" y="0px"
	 viewBox="0 0 400 400" enable-background="new 0 0 400 400" xml:space="preserve">
<g>
	<path fill-rule="evenodd" clip-rule="evenodd" fill="#0094D9" d="M230.8,385c4.4,0,7.3-2.8,7.8-7.1l7.6-111l9.7-2.4
		c9.5-2.3,12.7-9.1,13.1-20l3.2-94.1c0.8-23.9-25.3-33.5-45-37.8l-17.5,38.7l-2.1-24.1c0-0.1,1.5-8.1,1.7-10
		c0.1-0.8-0.7-1.5-1.5-1.4c-4.5,0.3-9,0.3-13.6,0c-0.8,0-1.5,0.7-1.5,1.4c0.2,1.9,1.7,10,1.7,10l-2.1,24.1l-17.5-38.7
		c-19.7,4.3-45.8,13.9-45,37.8l3.2,94.1c0.4,11,3.6,17.7,13.1,20l9.7,2.4l7.6,111c0.5,4.3,3.4,7.1,7.8,7.1H230.8L230.8,385z
		 M163.5,43c1.8-19.2,18.7-28.7,37.5-28.7c18.8,0,35.7,9.6,37.5,28.7c0.9,10-1.3,33.7-6.2,42.6c-4.3,7.8-14.3,15.4-25.3,17.9
		c-5.3,0.8-6.7,0.8-12,0c-11.1-2.6-21-10.1-25.3-17.9C164.8,76.6,162.6,53,163.5,43z"/>
	<path fill-rule="evenodd" clip-rule="evenodd" d="M68.9,58.3c1.6-16.9,16.7-25.4,33.6-25.4c16.9,0,32,8.5,33.6,25.4
		c0.8,8.8-1.2,29.7-5.5,37.6c-3.8,6.9-12.8,13.6-22.7,15.8c-4.8,0.7-6,0.7-10.8,0c-9.9-2.3-18.8-8.9-22.7-15.8
		C70.1,88,68.1,67.1,68.9,58.3L68.9,58.3z M128.8,362.9c3.9,0,6.4-2.5,6.9-6.3l5.5-80.1c-14.8-4.4-20.5-16.5-21-31.6l-3.2-94.1
		c-0.4-11.6,3.4-20.8,9.7-28c-37.4-7.7-88.2,3.4-87,33.2l3.4,83c0.4,9.7,3.2,15.5,11.6,17.7l8,2.1l6.7,97.9c0.4,3.8,3,6.3,6.9,6.3
		H128.8L128.8,362.9z M325.7,362.9c3.9,0,6.4-2.5,6.9-6.3l6.7-97.9l8-2.1c8.4-2.2,11.2-8.1,11.6-17.7l3.4-83
		c1.2-29.9-49.6-40.9-87-33.1c6.3,7.2,10.1,16.4,9.7,28l-3.2,94.1c-0.5,15-6.2,27.2-21,31.6l5.5,80.1c0.4,3.8,3,6.3,6.9,6.3H325.7
		L325.7,362.9z M265.9,58.3c1.6-16.9,16.7-25.4,33.6-25.4c16.9,0,32,8.5,33.6,25.4c0.8,8.8-1.2,29.7-5.5,37.6
		c-3.8,6.9-12.8,13.6-22.7,15.8c-4.8,0.7-6,0.7-10.8,0c-9.9-2.3-18.8-8.9-22.7-15.8C267,88,265,67.1,265.9,58.3z"/>
</g>
</svg>
